<?xml version="1.0" encoding="UTF-8" standalone="no"?>
<!-- Created with Inkscape (http://www.inkscape.org/) -->

<svg
   xmlns:osb="http://www.openswatchbook.org/uri/2009/osb"
   xmlns:dc="http://purl.org/dc/elements/1.1/"
   xmlns:cc="http://creativecommons.org/ns#"
   xmlns:rdf="http://www.w3.org/1999/02/22-rdf-syntax-ns#"
   xmlns:svg="http://www.w3.org/2000/svg"
   xmlns="http://www.w3.org/2000/svg"
   xmlns:sodipodi="http://sodipodi.sourceforge.net/DTD/sodipodi-0.dtd"
   xmlns:inkscape="http://www.inkscape.org/namespaces/inkscape"
   width="450mm"
   height="90mm"
   viewBox="0 0 450 90"
   version="1.1"
   id="svg8"
   inkscape:version="0.92.5 (2060ec1f9f, 2020-04-08)"
   sodipodi:docname="pokefood.svg"
   inkscape:export-filename="C:\Users\香蕉的菊子\Desktop\BB资料\gp\fast_food_example-master\web\pokefood.png"
   inkscape:export-xdpi="96"
   inkscape:export-ydpi="96">
  <defs
     id="defs2">
    <linearGradient
       id="linearGradient858"
       osb:paint="solid">
      <stop
         style="stop-color:#643f0a;stop-opacity:1;"
         offset="0"
         id="stop856" />
    </linearGradient>
  </defs>
  <sodipodi:namedview
     id="base"
     pagecolor="#ffffff"
     bordercolor="#666666"
     borderopacity="1.0"
     inkscape:pageopacity="0.0"
     inkscape:pageshadow="2"
     inkscape:zoom="0.7"
     inkscape:cx="903.89899"
     inkscape:cy="439.58403"
     inkscape:document-units="mm"
     inkscape:current-layer="layer1"
     showgrid="false"
     inkscape:window-width="1920"
     inkscape:window-height="1001"
     inkscape:window-x="-9"
     inkscape:window-y="-9"
     inkscape:window-maximized="1" />
  <metadata
     id="metadata5">
    <rdf:RDF>
      <cc:Work
         rdf:about="">
        <dc:format>image/svg+xml</dc:format>
        <dc:type
           rdf:resource="http://purl.org/dc/dcmitype/StillImage" />
        <dc:title></dc:title>
      </cc:Work>
    </rdf:RDF>
  </metadata>
  <g
     inkscape:label="Layer 1"
     inkscape:groupmode="layer"
     id="layer1"
     transform="translate(0,-207)">
    <flowRoot
       xml:space="preserve"
       id="flowRoot815"
       style="font-style:normal;font-weight:normal;font-size:40px;line-height:1.25;font-family:sans-serif;letter-spacing:0px;word-spacing:0px;fill:#000000;fill-opacity:1;stroke:none"
       transform="matrix(2.5101858,0,0,2.494246,-269.29369,-405.42274)"><flowRegion
         id="flowRegion817"><rect
           id="rect819"
           width="569.72601"
           height="105.05586"
           x="109.09647"
           y="241.66667" /></flowRegion><flowPara
         id="flowPara821"
         style="font-style:normal;font-variant:normal;font-weight:bold;font-stretch:normal;font-size:40px;font-family:'Comic Sans MS';-inkscape-font-specification:'Comic Sans MS, Bold';font-variant-ligatures:normal;font-variant-caps:normal;font-variant-numeric:normal;font-feature-settings:normal;text-align:start;writing-mode:lr-tb;text-anchor:start"><flowSpan
           style="fill:#474e97;fill-opacity:1;stroke:none;stroke-opacity:1"
           id="flowSpan2510">P</flowSpan><flowSpan
           style="fill:#74599f;fill-opacity:1"
           id="flowSpan2588">o</flowSpan><flowSpan
           style="fill:#b14297;fill-opacity:1"
           id="flowSpan2596">k</flowSpan><flowSpan
           style="fill:#af5357;fill-opacity:1"
           id="flowSpan2608">e</flowSpan><flowSpan
           style="fill:#dd7d38;fill-opacity:1"
           id="flowSpan2616">F</flowSpan><flowSpan
           style="fill:#e9b817;fill-opacity:1"
           id="flowSpan2628">o</flowSpan><flowSpan
           style="fill:#6db249;fill-opacity:1"
           id="flowSpan2676">o</flowSpan><flowSpan
           style="fill:#3c8061;fill-opacity:1"
           id="flowSpan2692">d</flowSpan></flowPara></flowRoot>    <path
       style="opacity:0.98999999;fill:#ffffff;fill-opacity:0.99215686;fill-rule:evenodd;stroke:none;stroke-width:0.75074559;stroke-linecap:round;stroke-linejoin:round;stroke-miterlimit:4;stroke-dasharray:none;stroke-dashoffset:0;stroke-opacity:1;paint-order:normal"
       d="m 79.824335,292.95846 c -1.542787,-0.11322 -4.59181,-0.61458 -6.20511,-1.0204 -7.105949,-1.78746 -11.777602,-5.53319 -13.095827,-10.50031 -0.173759,-0.65468 -0.20424,-2.12594 -0.20424,-9.85479 v -9.08522 h 1.135576 1.135575 v -0.45888 -0.45894 h -1.135575 -1.135576 v -2.49124 -2.49125 h 23.913908 23.914044 v 2.49125 2.49124 h -0.5344 c -0.52168,0 -0.53439,0.0111 -0.53439,0.45894 0,0.44797 0.0127,0.45888 0.53439,0.45888 h 0.5344 v 9.45442 c 0,10.48593 0.0184,10.23827 -0.88573,11.93094 -2.47284,4.62963 -10.295868,8.16869 -19.955584,9.02776 -1.402917,0.1249 -6.028704,0.15432 -7.481452,0.0474 z m 5.625678,-14.99143 c 2.199816,-0.40945 4.179702,-2.12311 4.932359,-4.2692 0.834642,-2.37988 0.227252,-4.93638 -1.604582,-6.75368 -1.052501,-1.04414 -2.200244,-1.62405 -3.65302,-1.8457 -2.69159,-0.4107 -5.530561,1.04505 -6.739692,3.45586 -0.526929,1.05065 -0.690947,1.7576 -0.695027,2.99586 -0.0058,1.89072 0.59276,3.32702 1.943212,4.65932 1.550589,1.5298 3.643275,2.1621 5.81675,1.75754 z M 67.266212,262.03886 v -0.45894 h -1.202371 -1.202382 v 0.45894 0.45888 h 1.202382 1.202371 z m 4.675902,0 v -0.45894 H 70.739743 69.53736 v 0.45894 0.45888 h 1.202383 1.202371 z m 4.784544,-0.0327 0.04188,-0.42615 h -1.277637 -1.27765 v 0.46385 0.46383 l 1.235776,-0.0378 1.235773,-0.0378 z m 4.700847,0.0327 v -0.45894 H 80.158329 78.88915 v 0.45894 0.45888 h 1.269179 1.269176 z m 4.675913,0 v -0.45894 h -1.26918 -1.269176 v 0.45894 0.45888 h 1.269176 1.26918 z m 4.675914,0 v -0.45894 H 89.57695 88.374569 v 0.45894 0.45888 h 1.202381 1.202382 z m 4.675927,0 v -0.45894 h -1.202377 -1.202389 v 0.45894 0.45888 h 1.202389 1.202377 z m 4.675931,0 v -0.45894 h -1.202365 -1.202402 v 0.45894 0.45888 h 1.202402 1.202365 z m 4.67594,0 v -0.45894 h -1.20238 -1.20239 v 0.45894 0.45888 h 1.20239 1.20238 z"
       id="path907"
       inkscape:connector-curvature="0" />
    <path
       style="opacity:0.98999999;fill:#ca6e71;fill-opacity:1;fill-rule:evenodd;stroke:none;stroke-width:0.25685325;stroke-linecap:round;stroke-linejoin:round;stroke-miterlimit:4;stroke-dasharray:none;stroke-dashoffset:0;stroke-opacity:1;paint-order:normal"
       d="m 175.67418,235.99631 c 0.0565,-0.0588 6.43398,-5.1839 14.17193,-11.38925 l 14.069,-11.28247 3.07584,5.35004 c 1.69174,2.9425 3.03498,5.39327 2.985,5.44617 -0.12646,0.13376 -33.80717,11.93504 -34.13707,11.96116 -0.14717,0.0111 -0.22128,-0.0277 -0.16471,-0.0857 z"
       id="path2694"
       inkscape:connector-curvature="0" />
  </g>
  <g
     inkscape:groupmode="layer"
     id="layer3"
     inkscape:label="Layer 2"
     transform="translate(0,-207)">
    <path
       style="fill:#ffffff;fill-opacity:0.99215686;stroke:#000000;stroke-width:1.12051606;stroke-linecap:butt;stroke-linejoin:round;stroke-miterlimit:4;stroke-dasharray:none;stroke-opacity:1"
       d="M 108.62938,280.06316 V 256.20855 H 59.86779 l -0.01355,24.31819 c 4.72458,18.65107 49.25956,14.6723 48.77517,-0.46358 z"
       id="path847"
       inkscape:connector-curvature="0"
       sodipodi:nodetypes="ccccc" />
    <path
       style="fill:none;stroke:#000000;stroke-width:0.84038699;stroke-linecap:butt;stroke-linejoin:miter;stroke-miterlimit:4;stroke-dasharray:2.52116081, 2.52116081;stroke-dashoffset:0;stroke-opacity:1"
       d="m 60.19214,262.02086 h 48.32912"
       id="path851"
       inkscape:connector-curvature="0" />
    <ellipse
       style="opacity:1;fill:#dc9713;fill-opacity:1;fill-rule:evenodd;stroke:#643f0a;stroke-width:0.56025803;stroke-linecap:round;stroke-linejoin:round;stroke-miterlimit:4;stroke-dasharray:none;stroke-dashoffset:0;stroke-opacity:1;paint-order:normal"
       id="path849"
       cx="84.197418"
       cy="271.55664"
       rx="6.342875"
       ry="6.3314819" />
    <ellipse
       style="opacity:0.98999999;fill:#ffffff;fill-opacity:1;fill-rule:evenodd;stroke:#643f0a;stroke-width:0.56025803;stroke-linecap:round;stroke-linejoin:round;stroke-miterlimit:4;stroke-dasharray:none;stroke-dashoffset:0;stroke-opacity:1;paint-order:normal"
       id="path854-2"
       cx="86.787613"
       cy="269.49466"
       rx="1.4095278"
       ry="1.4069961" />
    <ellipse
       style="opacity:0.98999999;fill:#fffefb;fill-opacity:1;fill-rule:evenodd;stroke:#643f0a;stroke-width:0.56025803;stroke-linecap:round;stroke-linejoin:round;stroke-miterlimit:4;stroke-dasharray:none;stroke-dashoffset:0;stroke-opacity:1;paint-order:normal"
       id="path854-1"
       cx="81.712463"
       cy="273.61414"
       rx="1.4095278"
       ry="1.4069961" />
    <ellipse
       style="opacity:0.98999999;fill:#fdfdfd;fill-opacity:1;fill-rule:evenodd;stroke:#643f0a;stroke-width:0.56025803;stroke-linecap:round;stroke-linejoin:round;stroke-miterlimit:4;stroke-dasharray:none;stroke-dashoffset:0;stroke-opacity:1;paint-order:normal"
       id="path854-6"
       cx="86.805771"
       cy="273.61414"
       rx="1.4095278"
       ry="1.4069961" />
    <ellipse
       style="opacity:0.98999999;fill:#fffcf6;fill-opacity:1;fill-rule:evenodd;stroke:#643f0a;stroke-width:0.56025803;stroke-linecap:round;stroke-linejoin:round;stroke-miterlimit:4;stroke-dasharray:none;stroke-dashoffset:0;stroke-opacity:1;paint-order:normal"
       id="path854"
       cx="81.681458"
       cy="269.47275"
       rx="1.4095278"
       ry="1.4069961" />
  </g>
</svg>
